<?xml version="1.0" standalone="no"?>
<!DOCTYPE svg PUBLIC "-//W3C//DTD SVG 20010904//EN"
 "http://www.w3.org/TR/2001/REC-SVG-20010904/DTD/svg10.dtd">
<svg version="1.0" xmlns="http://www.w3.org/2000/svg"
 width="600.000000pt" height="600.000000pt" viewBox="0 0 600.000000 600.000000"
 preserveAspectRatio="xMidYMid meet">

<g transform="translate(0.000000,600.000000) scale(0.100000,-0.100000)"
fill="#000000" stroke="none">
<path d="M2858 5789 c-709 -36 -1368 -340 -1878 -865 -618 -637 -897 -1528
-749 -2394 86 -506 281 -947 588 -1327 97 -120 304 -326 431 -429 331 -267
752 -465 1180 -554 112 -23 289 -50 332 -50 59 0 58 -10 58 474 0 338 -3 446
-12 459 -9 11 -43 22 -99 32 -676 118 -1243 610 -1452 1260 -52 162 -77 293
-84 444 l-6 134 93 -6 c51 -4 126 -7 166 -7 l72 0 6 -67 c17 -191 52 -346 111
-492 176 -441 569 -790 1015 -904 150 -38 158 -39 179 -18 18 18 19 40 14 487
-2 258 -6 479 -8 491 -3 13 -22 29 -51 44 -110 53 -217 189 -258 328 -20 69
-21 199 -1 276 37 142 149 280 280 346 56 28 71 41 73 61 8 64 -57 59 -168
-13 -270 -174 -367 -524 -224 -808 50 -101 119 -181 203 -236 l60 -40 1 -187
c0 -144 -3 -188 -12 -188 -27 0 -169 69 -236 114 -90 59 -209 179 -269 269
-63 95 -122 234 -144 341 -18 88 -28 106 -60 106 -50 0 -49 -77 1 -232 102
-311 349 -567 658 -678 l62 -23 0 -71 c0 -39 3 -122 7 -184 l6 -112 -26 0
c-15 0 -69 14 -121 30 -371 119 -665 367 -841 712 -111 216 -158 409 -158 653
-1 384 132 718 396 992 110 113 199 185 322 257 157 91 396 168 569 182 l83 6
6 -178 c4 -98 6 -179 4 -180 -1 -1 -40 -8 -86 -14 -310 -42 -588 -216 -755
-471 -121 -187 -185 -394 -123 -400 44 -4 49 2 78 96 61 202 195 389 365 511
83 59 230 127 334 156 119 31 357 32 472 0 364 -100 627 -363 718 -719 11 -42
20 -93 20 -115 l0 -38 -174 0 -173 0 -12 60 c-7 33 -30 97 -53 142 -54 108
-161 217 -266 272 -79 41 -115 42 -127 5 -9 -28 7 -44 87 -86 171 -90 288
-284 288 -478 0 -122 -58 -266 -146 -364 -57 -62 -67 -94 -35 -111 31 -16 40
-13 87 36 98 103 162 237 179 377 l6 57 175 0 174 0 0 -24 c0 -56 -23 -186
-47 -261 -60 -192 -189 -373 -355 -498 -20 -16 -71 -47 -114 -70 -86 -47 -105
-67 -88 -94 18 -29 50 -27 116 7 417 212 652 705 554 1165 -97 453 -454 782
-917 846 l-86 12 -7 81 c-3 44 -6 126 -6 180 l0 99 88 -6 c326 -21 680 -189
910 -431 193 -203 328 -461 377 -718 17 -91 27 -108 61 -108 41 0 47 29 25
135 -125 594 -594 1065 -1180 1185 -493 100 -994 -42 -1359 -385 -263 -248
-440 -606 -469 -950 l-6 -75 -77 0 c-42 0 -119 3 -170 7 l-92 6 6 86 c10 123
41 267 87 406 218 653 776 1133 1454 1250 88 15 115 30 115 62 0 7 -10 19 -22
27 -20 13 -35 12 -128 -4 -586 -106 -1095 -480 -1379 -1011 -244 -458 -291
-1022 -126 -1525 107 -326 323 -647 583 -865 274 -229 564 -368 915 -439 l57
-11 0 -160 c0 -185 17 -169 -146 -139 -353 64 -702 220 -978 437 -99 79 -255
231 -344 338 -267 318 -449 741 -506 1174 -15 115 -25 141 -56 141 -46 0 -51
-41 -24 -215 64 -417 241 -815 511 -1150 359 -446 929 -764 1486 -830 l57 -7
-2 -182 -3 -181 -40 3 c-22 2 -99 14 -171 28 -442 81 -875 278 -1213 552 -123
100 -329 304 -415 412 -312 391 -511 862 -582 1380 -24 169 -24 529 -1 693 35
251 116 532 217 759 409 914 1334 1556 2313 1605 l127 6 0 -175 0 -176 -82 -7
c-385 -31 -727 -134 -1034 -310 -599 -345 -1021 -930 -1153 -1600 -41 -213
-39 -265 15 -265 30 0 40 20 48 95 28 241 110 503 233 747 296 587 849 1024
1494 1182 194 47 317 60 549 60 392 0 683 -68 1029 -240 565 -281 983 -775
1165 -1376 53 -175 96 -423 96 -553 l0 -35 -170 0 c-111 0 -170 4 -170 10 0
40 -25 222 -41 305 -101 501 -413 956 -854 1245 -105 69 -317 171 -433 209
-114 37 -294 78 -384 87 -71 7 -98 -2 -98 -35 0 -34 19 -44 116 -58 925 -134
1605 -918 1604 -1850 0 -436 -156 -858 -443 -1200 -229 -273 -574 -495 -903
-583 -93 -25 -123 -50 -101 -84 8 -12 22 -22 31 -24 9 -2 69 13 133 33 777
245 1320 938 1369 1748 l7 107 170 0 170 0 -6 -117 c-21 -379 -148 -767 -362
-1098 -125 -195 -354 -438 -549 -584 -246 -185 -557 -329 -864 -401 -54 -12
-77 -35 -66 -65 13 -33 40 -36 121 -14 452 120 809 323 1123 638 359 361 571
773 661 1288 27 153 36 419 20 589 -78 825 -575 1542 -1326 1910 -290 142
-585 219 -917 240 l-108 7 0 172 c0 94 2 174 4 176 10 9 269 -11 386 -30 796
-130 1519 -622 1920 -1308 183 -313 306 -669 357 -1033 24 -174 24 -559 0
-725 -127 -874 -682 -1660 -1447 -2049 -365 -186 -696 -278 -1052 -293 l-148
-6 0 595 0 595 98 6 c547 37 1067 425 1277 955 68 173 114 404 88 442 -31 44
-83 7 -83 -57 0 -48 -38 -216 -67 -298 -36 -100 -114 -254 -175 -343 -78 -114
-263 -295 -384 -375 -205 -136 -434 -217 -663 -235 l-91 -8 0 548 0 547 -22
15 c-12 9 -36 16 -53 16 -101 0 -225 96 -260 200 -51 152 9 309 147 386 48 26
62 29 143 29 105 0 158 -20 224 -86 86 -86 114 -217 72 -329 -24 -61 -45 -89
-110 -139 l-43 -34 7 -481 c4 -265 12 -489 17 -498 12 -24 48 -23 159 6 527
137 922 602 968 1139 4 53 10 100 13 102 3 3 85 8 183 12 l178 6 -6 -109 c-6
-120 -34 -270 -73 -397 -36 -117 -152 -346 -231 -457 -87 -121 -253 -287 -373
-372 -211 -150 -509 -272 -712 -292 -72 -7 -68 20 -68 -472 0 -424 1 -445 19
-463 23 -23 45 -21 229 16 224 44 537 149 711 237 232 118 462 287 657 481
417 416 672 926 749 1500 22 160 22 488 0 650 -79 590 -338 1113 -751 1515
-199 194 -401 340 -639 462 -289 148 -639 254 -906 275 -71 5 -78 4 -88 -16
-8 -15 -9 -27 -1 -41 12 -22 25 -26 115 -35 426 -45 909 -252 1275 -546 288
-231 499 -495 666 -834 179 -363 256 -695 256 -1105 1 -296 -40 -543 -132
-805 -204 -575 -620 -1073 -1145 -1368 -234 -131 -608 -260 -882 -303 l-43 -7
0 170 0 170 83 12 c334 51 691 207 982 430 232 177 460 459 600 744 96 193
157 389 195 617 26 163 26 226 1 240 -39 20 -71 -12 -71 -71 0 -59 -31 -244
-60 -355 -196 -759 -801 -1336 -1571 -1499 -178 -37 -159 -54 -159 145 0 155
2 170 18 170 24 0 196 45 274 71 110 37 289 127 408 206 156 104 356 303 459
457 136 205 218 398 268 635 25 114 27 147 28 336 0 180 -4 226 -23 323 -49
242 -154 490 -290 682 -86 122 -290 327 -412 412 -271 191 -565 294 -917 323
l-83 7 0 175 0 176 93 -7 c539 -40 995 -245 1362 -611 326 -327 531 -740 594
-1199 6 -44 16 -85 22 -93 17 -20 47 -16 63 10 13 19 13 35 0 122 -70 474
-296 913 -645 1250 -337 325 -733 519 -1209 591 -156 24 -454 24 -608 1 -653
-101 -1198 -458 -1547 -1013 -174 -278 -281 -595 -316 -943 l-12 -121 -72 0
c-40 0 -113 3 -163 6 l-92 7 0 63 c0 170 58 459 140 689 184 523 548 973 1035
1280 112 71 338 182 469 230 177 65 491 135 609 135 19 0 45 8 58 19 21 16 22
22 11 45 -10 23 -18 26 -58 26 -110 0 -370 -51 -544 -105 -667 -211 -1247
-709 -1550 -1330 -342 -702 -353 -1486 -30 -2215 151 -342 422 -693 722 -935
283 -228 649 -409 998 -494 172 -43 194 -45 214 -26 18 18 20 33 8 52 -5 7
-87 33 -183 57 -214 54 -330 96 -524 191 -260 127 -438 257 -660 479 -423 424
-673 984 -714 1596 -5 74 -6 138 -2 143 4 4 79 4 168 1 l160 -7 6 -116 c21
-369 144 -746 346 -1054 100 -152 168 -235 295 -363 275 -274 639 -480 1004
-569 80 -19 102 -13 102 30 0 32 -14 41 -108 64 -414 106 -828 377 -1101 721
-474 596 -584 1417 -285 2117 197 462 543 827 995 1052 252 126 470 185 797
216 l62 6 -2 -178 -3 -178 -85 -7 c-208 -17 -406 -75 -615 -178 -333 -166
-593 -420 -771 -754 -80 -152 -158 -388 -171 -522 -5 -56 -4 -63 16 -73 27
-15 59 1 65 32 3 12 12 56 20 97 33 168 114 376 206 525 108 177 315 393 482
505 317 212 704 315 1062 282 162 -15 252 -34 397 -82 616 -204 1060 -758
1124 -1401 l6 -66 -176 -6 c-97 -4 -180 -5 -185 -2 -4 3 -11 35 -15 72 -50
476 -405 913 -865 1067 -58 19 -138 41 -178 48 -64 11 -74 10 -88 -4 -25 -24
-11 -66 24 -73 200 -41 352 -100 484 -188 606 -403 724 -1238 253 -1790 -143
-167 -341 -299 -553 -367 -51 -17 -99 -30 -107 -30 -13 0 -15 28 -15 183 l0
184 70 27 c79 31 191 102 262 165 93 83 195 245 232 370 22 77 21 99 -9 113
-34 15 -52 -2 -71 -71 -57 -198 -220 -389 -405 -476 -94 -43 -89 -52 -89 165
l0 190 39 36 c229 206 141 587 -156 676 l-73 22 0 174 0 175 60 -7 c33 -4 88
-16 122 -27 228 -75 398 -237 483 -460 26 -68 45 -86 78 -73 38 14 30 67 -26
179 -181 364 -580 550 -965 451 -185 -47 -346 -152 -458 -298 -88 -114 -152
-260 -169 -387 l-7 -54 -181 6 c-99 4 -181 8 -183 10 -8 8 31 203 55 277 62
185 147 325 280 463 170 176 347 278 591 341 83 21 85 22 88 53 5 52 -20 57
-134 28 -485 -127 -851 -516 -951 -1013 -27 -134 -24 -376 6 -512 74 -338 274
-628 561 -816 96 -63 241 -134 273 -134 9 0 23 10 31 22 23 32 4 54 -78 89
-282 120 -521 366 -636 653 -46 113 -79 252 -86 362 l-7 95 179 -7 c98 -4 180
-8 182 -9 1 -1 7 -39 12 -83 26 -205 117 -384 268 -523 84 -78 117 -97 140
-83 9 6 18 22 20 36 2 20 -9 35 -57 76 -132 110 -218 240 -262 398 -18 62 -23
104 -22 194 0 139 17 209 80 340 39 81 59 107 137 185 50 49 117 105 148 124
73 42 205 88 281 97 l57 7 0 -175 0 -175 -58 -16 c-68 -19 -169 -83 -204 -130
-123 -160 -121 -370 4 -521 44 -54 139 -112 204 -127 l54 -12 0 -625 0 -624
-82 7 c-774 65 -1403 660 -1503 1420 -14 110 -25 135 -56 135 -35 0 -46 -33
-37 -112 31 -273 127 -531 286 -769 297 -443 767 -717 1315 -765 l77 -6 0
-518 c0 -452 2 -519 15 -530 26 -21 341 -7 515 24 579 101 1091 373 1505 797
226 232 382 453 526 744 134 273 214 528 261 830 26 168 31 554 10 720 -23
177 -72 396 -127 561 -220 667 -652 1198 -1270 1559 -364 212 -825 354 -1205
371 -63 2 -137 6 -165 7 -27 2 -112 0 -187 -4z"/>
</g>
</svg>
