<svg xmlns="http://www.w3.org/2000/svg" width="800" height="800" viewBox="0 0 600 600"><path d="M285.8 21.1C214.9 24.7 149 55.1 98 107.6 36.2 171.3 8.3 260.4 23.1 347c8.6 50.6 28.1 94.7 58.8 132.7 9.7 12 30.4 32.6 43.1 42.9 33.1 26.7 75.2 46.5 118 55.4 11.2 2.3 28.9 5 33.2 5 5.9 0 5.8 1 5.8-47.4 0-33.8-.3-44.6-1.2-45.9-.9-1.1-4.3-2.2-9.9-3.2-67.6-11.8-124.3-61-145.2-126-5.2-16.2-7.7-29.3-8.4-44.4l-.6-13.4 9.3.6c5.1.4 12.6.7 16.6.7h7.2l.6 6.7c1.7 19.1 5.2 34.6 11.1 49.2 17.6 44.1 56.9 79 101.5 90.4 15 3.8 15.8 3.9 17.9 1.8 1.8-1.8 1.9-4 1.4-48.7-.2-25.8-.6-47.9-.8-49.1-.3-1.3-2.2-2.9-5.1-4.4-11-5.3-21.7-18.9-25.8-32.8-2-6.9-2.1-19.9-.1-27.6 3.7-14.2 14.9-28 28-34.6 5.6-2.8 7.1-4.1 7.3-6.1.8-6.4-5.7-5.9-16.8 1.3-27 17.4-36.7 52.4-22.4 80.8 5 10.1 11.9 18.1 20.3 23.6l6 4 .1 18.7c0 14.4-.3 18.8-1.2 18.8-2.7 0-16.9-6.9-23.6-11.4-9-5.9-20.9-17.9-26.9-26.9-6.3-9.5-12.2-23.4-14.4-34.1-1.8-8.8-2.8-10.6-6-10.6-5 0-4.9 7.7.1 23.2 10.2 31.1 34.9 56.7 65.8 67.8l6.2 2.3v7.1c0 3.9.3 12.2.7 18.4l.6 11.2h-2.6c-1.5 0-6.9-1.4-12.1-3-37.1-11.9-66.5-36.7-84.1-71.2-11.1-21.6-15.8-40.9-15.8-65.3-.1-38.4 13.2-71.8 39.6-99.2 11-11.3 19.9-18.5 32.2-25.7 15.7-9.1 39.6-16.8 56.9-18.2l8.3-.6.6 17.8c.4 9.8.6 17.9.4 18-.1.1-4 .8-8.6 1.4-31 4.2-58.8 21.6-75.5 47.1-12.1 18.7-18.5 39.4-12.3 40 4.4.4 4.9-.2 7.8-9.6 6.1-20.2 19.5-38.9 36.5-51.1 8.3-5.9 23-12.7 33.4-15.6 11.9-3.1 35.7-3.2 47.2 0 36.4 10 62.7 36.3 71.8 71.9 1.1 4.2 2 9.3 2 11.5v3.8h-34.7l-1.2-6c-.7-3.3-3-9.7-5.3-14.2-5.4-10.8-16.1-21.7-26.6-27.2-7.9-4.1-11.5-4.2-12.7-.5-.9 2.8.7 4.4 8.7 8.6 17.1 9 28.8 28.4 28.8 47.8 0 12.2-5.8 26.6-14.6 36.4-5.7 6.2-6.7 9.4-3.5 11.1 3.1 1.6 4 1.3 8.7-3.6 9.8-10.3 16.2-23.7 17.9-37.7l.6-5.7H401v2.4c0 5.6-2.3 18.6-4.7 26.1-6 19.2-18.9 37.3-35.5 49.8-2 1.6-7.1 4.7-11.4 7-8.6 4.7-10.5 6.7-8.8 9.4 1.8 2.9 5 2.7 11.6-.7 41.7-21.2 65.2-70.5 55.4-116.5-9.7-45.3-45.4-78.2-91.7-84.6l-8.6-1.2-.7-8.1c-.3-4.4-.6-12.6-.6-18v-9.9l8.8.6c32.6 2.1 68 18.9 91 43.1 19.3 20.3 32.8 46.1 37.7 71.8 1.7 9.1 2.7 10.8 6.1 10.8 4.1 0 4.7-2.9 2.5-13.5-12.5-59.4-59.4-106.5-118-118.5-49.3-10-99.4 4.2-135.9 38.5-26.3 24.8-44 60.6-46.9 95l-.6 7.5H143c-4.2 0-11.9-.3-17-.7l-9.2-.6.6-8.6c1-12.3 4.1-26.7 8.7-40.6 21.8-65.3 77.6-113.3 145.4-125 8.8-1.5 11.5-3 11.5-6.2 0-.7-1-1.9-2.2-2.7-2-1.3-3.5-1.2-12.8.4-58.6 10.6-109.5 48-137.9 101.1-24.4 45.8-29.1 102.2-12.6 152.5 10.7 32.6 32.3 64.7 58.3 86.5 27.4 22.9 56.4 36.8 91.5 43.9l5.7 1.1v16c0 18.5 1.7 16.9-14.6 13.9-35.3-6.4-70.2-22-97.8-43.7-9.9-7.9-25.5-23.1-34.4-33.8-26.7-31.8-44.9-74.1-50.6-117.4-1.5-11.5-2.5-14.1-5.6-14.1-4.6 0-5.1 4.1-2.4 21.5 6.4 41.7 24.1 81.5 51.1 115 35.9 44.6 92.9 76.4 148.6 83l5.7.7-.2 18.2-.3 18.1-4-.3c-2.2-.2-9.9-1.4-17.1-2.8-44.2-8.1-87.5-27.8-121.3-55.2-12.3-10-32.9-30.4-41.5-41.2-31.2-39.1-51.1-86.2-58.2-138-2.4-16.9-2.4-52.9-.1-69.3 3.5-25.1 11.6-53.2 21.7-75.9C92.9 99.4 185.4 35.2 283.3 30.3l12.7-.6v35.1l-8.2.7c-38.5 3.1-72.7 13.4-103.4 31-59.9 34.5-102.1 93-115.3 160-4.1 21.3-3.9 26.5 1.5 26.5 3 0 4-2 4.8-9.5 2.8-24.1 11-50.3 23.3-74.7 29.6-58.7 84.9-102.4 149.4-118.2 19.4-4.7 31.7-6 54.9-6 39.2 0 68.3 6.8 102.9 24 56.5 28.1 98.3 77.5 116.5 137.6 5.3 17.5 9.6 42.3 9.6 55.3v3.5h-17c-11.1 0-17-.4-17-1 0-4-2.5-22.2-4.1-30.5-10.1-50.1-41.3-95.6-85.4-124.5-10.5-6.9-31.7-17.1-43.3-20.9-11.4-3.7-29.4-7.8-38.4-8.7-7.1-.7-9.8.2-9.8 3.5 0 3.4 1.9 4.4 11.6 5.8 92.5 13.4 160.5 91.8 160.4 185 0 43.6-15.6 85.8-44.3 120-22.9 27.3-57.4 49.5-90.3 58.3-9.3 2.5-12.3 5-10.1 8.4.8 1.2 2.2 2.2 3.1 2.4s6.9-1.3 13.3-3.3c77.7-24.5 132-93.8 136.9-174.8l.7-10.7h34l-.6 11.7c-2.1 37.9-14.8 76.7-36.2 109.8-12.5 19.5-35.4 43.8-54.9 58.4-24.6 18.5-55.7 32.9-86.4 40.1-5.4 1.2-7.7 3.5-6.6 6.5 1.3 3.3 4 3.6 12.1 1.4 45.2-12 80.9-32.3 112.3-63.8 35.9-36.1 57.1-77.3 66.1-128.8 2.7-15.3 3.6-41.9 2-58.9-7.8-82.5-57.5-154.2-132.6-191-29-14.2-58.5-21.9-91.7-24l-10.8-.7V47.5c0-9.4.2-17.4.4-17.6 1-.9 26.9 1.1 38.6 3 79.6 13 151.9 62.2 192 130.8 18.3 31.3 30.6 66.9 35.7 103.3 2.4 17.4 2.4 55.9 0 72.5-12.7 87.4-68.2 166-144.7 204.9-36.5 18.6-69.6 27.8-105.2 29.3l-14.8.6v-119l9.8-.6c54.7-3.7 106.7-42.5 127.7-95.5 6.8-17.3 11.4-40.4 8.8-44.2-3.1-4.4-8.3-.7-8.3 5.7 0 4.8-3.8 21.6-6.7 29.8-3.6 10-11.4 25.4-17.5 34.3-7.8 11.4-26.3 29.5-38.4 37.5-20.5 13.6-43.4 21.7-66.3 23.5l-9.1.8V337.1l-2.2-1.5c-1.2-.9-3.6-1.6-5.3-1.6-10.1 0-22.5-9.6-26-20-5.1-15.2.9-30.9 14.7-38.6 4.8-2.6 6.2-2.9 14.3-2.9 10.5 0 15.8 2 22.4 8.6 8.6 8.6 11.4 21.7 7.2 32.9-2.4 6.1-4.5 8.9-11 13.9l-4.3 3.4.7 48.1c.4 26.5 1.2 48.9 1.7 49.8 1.2 2.4 4.8 2.3 15.9-.6 52.7-13.7 92.2-60.2 96.8-113.9.4-5.3 1-10 1.3-10.2.3-.3 8.5-.8 18.3-1.2l17.8-.6-.6 10.9c-.6 12-3.4 27-7.3 39.7-3.6 11.7-15.2 34.6-23.1 45.7-8.7 12.1-25.3 28.7-37.3 37.2-21.1 15-50.9 27.2-71.2 29.2-7.2.7-6.8-2-6.8 47.2 0 42.4.1 44.5 1.9 46.3 2.3 2.3 4.5 2.1 22.9-1.6 22.4-4.4 53.7-14.9 71.1-23.7 23.2-11.8 46.2-28.7 65.7-48.1 41.7-41.6 67.2-92.6 74.9-150 2.2-16 2.2-48.8 0-65-7.9-59-33.8-111.3-75.1-151.5-19.9-19.4-40.1-34-63.9-46.2-28.9-14.8-63.9-25.4-90.6-27.5-7.1-.5-7.8-.4-8.8 1.6-.8 1.5-.9 2.7-.1 4.1 1.2 2.2 2.5 2.6 11.5 3.5 42.6 4.5 90.9 25.2 127.5 54.6 28.8 23.1 49.9 49.5 66.6 83.4 17.9 36.3 25.6 69.5 25.6 110.5.1 29.6-4 54.3-13.2 80.5-20.4 57.5-62 107.3-114.5 136.8-23.4 13.1-60.8 26-88.2 30.3l-4.3.7v-34l8.3-1.2c33.4-5.1 69.1-20.7 98.2-43 23.2-17.7 46-45.9 60-74.4 9.6-19.3 15.7-38.9 19.5-61.7 2.6-16.3 2.6-22.6.1-24-3.9-2-7.1 1.2-7.1 7.1s-3.1 24.4-6 35.5c-19.6 75.9-80.1 133.6-157.1 149.9-17.8 3.7-15.9 5.4-15.9-14.5 0-15.5.2-17 1.8-17 2.4 0 19.6-4.5 27.4-7.1 11-3.7 28.9-12.7 40.8-20.6 15.6-10.4 35.6-30.3 45.9-45.7 13.6-20.5 21.8-39.8 26.8-63.5 2.5-11.4 2.7-14.7 2.8-33.6 0-18-.4-22.6-2.3-32.3-4.9-24.2-15.4-49-29-68.2-8.6-12.2-29-32.7-41.2-41.2-27.1-19.1-56.5-29.4-91.7-32.3l-8.3-.7V93.7l9.3.7c53.9 4 99.5 24.5 136.2 61.1 32.6 32.7 53.1 74 59.4 119.9.6 4.4 1.6 8.5 2.2 9.3 1.7 2 4.7 1.6 6.3-1 1.3-1.9 1.3-3.5 0-12.2-7-47.4-29.6-91.3-64.5-125C420.2 114 380.6 94.6 333 87.4c-15.6-2.4-45.4-2.4-60.8-.1-65.3 10.1-119.8 45.8-154.7 101.3-17.4 27.8-28.1 59.5-31.6 94.3L84.7 295h-7.2c-4 0-11.3-.3-16.3-.6l-9.2-.7v-6.3c0-17 5.8-45.9 14-68.9 18.4-52.3 54.8-97.3 103.5-128 11.2-7.1 33.8-18.2 46.9-23C234.1 61 265.5 54 277.3 54c1.9 0 4.5-.8 5.8-1.9 2.1-1.6 2.2-2.2 1.1-4.5-1-2.3-1.8-2.6-5.8-2.6-11 0-37 5.1-54.4 10.5-66.7 21.1-124.7 70.9-155 133-34.2 70.2-35.3 148.6-3 221.5 15.1 34.2 42.2 69.3 72.2 93.5 28.3 22.8 64.9 40.9 99.8 49.4 17.2 4.3 19.4 4.5 21.4 2.6 1.8-1.8 2-3.3.8-5.2-.5-.7-8.7-3.3-18.3-5.7-21.4-5.4-33-9.6-52.4-19.1-26-12.7-43.8-25.7-66-47.9-42.3-42.4-67.3-98.4-71.4-159.6-.5-7.4-.6-13.8-.2-14.3.4-.4 7.9-.4 16.8-.1l16 .7.6 11.6c2.1 36.9 14.4 74.6 34.6 105.4 10 15.2 16.8 23.5 29.5 36.3 27.5 27.4 63.9 48 100.4 56.9 8 1.9 10.2 1.3 10.2-3 0-3.2-1.4-4.1-10.8-6.4-41.4-10.6-82.8-37.7-110.1-72.1-47.4-59.6-58.4-141.7-28.5-211.7 19.7-46.2 54.3-82.7 99.5-105.2 25.2-12.6 47-18.5 79.7-21.6l6.2-.6-.2 17.8-.3 17.8-8.5.7c-20.8 1.7-40.6 7.5-61.5 17.8-33.3 16.6-59.3 42-77.1 75.4-8 15.2-15.8 38.8-17.1 52.2-.5 5.6-.4 6.3 1.6 7.3 2.7 1.5 5.9-.1 6.5-3.2.3-1.2 1.2-5.6 2-9.7 3.3-16.8 11.4-37.6 20.6-52.5 10.8-17.7 31.5-39.3 48.2-50.5 31.7-21.2 70.4-31.5 106.2-28.2 16.2 1.5 25.2 3.4 39.7 8.2 61.6 20.4 106 75.8 112.4 140.1l.6 6.6-17.6.6c-9.7.4-18 .5-18.5.2-.4-.3-1.1-3.5-1.5-7.2-5-47.6-40.5-91.3-86.5-106.7-5.8-1.9-13.8-4.1-17.8-4.8-6.4-1.1-7.4-1-8.8.4-2.5 2.4-1.1 6.6 2.4 7.3 20 4.1 35.2 10 48.4 18.8 60.6 40.3 72.4 123.8 25.3 179-14.3 16.7-34.1 29.9-55.3 36.7-5.1 1.7-9.9 3-10.7 3-1.3 0-1.5-2.8-1.5-18.3v-18.4l7-2.7c7.9-3.1 19.1-10.2 26.2-16.5 9.3-8.3 19.5-24.5 23.2-37 2.2-7.7 2.1-9.9-.9-11.3-3.4-1.5-5.2.2-7.1 7.1-5.7 19.8-22 38.9-40.5 47.6-9.4 4.3-8.9 5.2-8.9-16.5v-19l3.9-3.6c22.9-20.6 14.1-58.7-15.6-67.6l-7.3-2.2v-34.9l6 .7c3.3.4 8.8 1.6 12.2 2.7 22.8 7.5 39.8 23.7 48.3 46 2.6 6.8 4.5 8.6 7.8 7.3 3.8-1.4 3-6.7-2.6-17.9-18.1-36.4-58-55-96.5-45.1-18.5 4.7-34.6 15.2-45.8 29.8-8.8 11.4-15.2 26-16.9 38.7l-.7 5.4-18.1-.6c-9.9-.4-18.1-.8-18.3-1-.8-.8 3.1-20.3 5.5-27.7 6.2-18.5 14.7-32.5 28-46.3 17-17.6 34.7-27.8 59.1-34.1 8.3-2.1 8.5-2.2 8.8-5.3.5-5.2-2-5.7-13.4-2.8-48.5 12.7-85.1 51.6-95.1 101.3-2.7 13.4-2.4 37.6.6 51.2 7.4 33.8 27.4 62.8 56.1 81.6 9.6 6.3 24.1 13.4 27.3 13.4.9 0 2.3-1 3.1-2.2 2.3-3.2.4-5.4-7.8-8.9-28.2-12-52.1-36.6-63.6-65.3-4.6-11.3-7.9-25.2-8.6-36.2l-.7-9.5 17.9.7c9.8.4 18 .8 18.2.9.1.1.7 3.9 1.2 8.3 2.6 20.5 11.7 38.4 26.8 52.3 8.4 7.8 11.7 9.7 14 8.3.9-.6 1.8-2.2 2-3.6.2-2-.9-3.5-5.7-7.6-13.2-11-21.8-24-26.2-39.8-1.8-6.2-2.3-10.4-2.2-19.4 0-13.9 1.7-20.9 8-34 3.9-8.1 5.9-10.7 13.7-18.5 5-4.9 11.7-10.5 14.8-12.4 7.3-4.2 20.5-8.8 28.1-9.7l5.7-.7v35l-5.8 1.6c-6.8 1.9-16.9 8.3-20.4 13-12.3 16-12.1 37 .4 52.1 4.4 5.4 13.9 11.2 20.4 12.7l5.4 1.2v124.9l-8.2-.7c-77.4-6.5-140.3-66-150.3-142-1.4-11-2.5-13.5-5.6-13.5-3.5 0-4.6 3.3-3.7 11.2 3.1 27.3 12.7 53.1 28.6 76.9 29.7 44.3 76.7 71.7 131.5 76.5l7.7.6V529c0 45.2.2 51.9 1.5 53 2.6 2.1 34.1.7 51.5-2.4 57.9-10.1 109.1-37.3 150.5-79.7 22.6-23.2 38.2-45.3 52.6-74.4 13.4-27.3 21.4-52.8 26.1-83 2.6-16.8 3.1-55.4 1-72-2.3-17.7-7.2-39.6-12.7-56.1-22-66.7-65.2-119.8-127-155.9C405.1 37.3 359 23.1 321 21.4c-6.3-.2-13.7-.6-16.5-.7-2.7-.2-11.2 0-18.7.4"/></svg>